<svg xmlns="http://www.w3.org/2000/svg" xmlns:xlink="http://www.w3.org/1999/xlink" viewBox="0 0 678.4 57.51"><defs><style>.cls-1{fill:#180f2a;}.cls-2{fill:url(#linear-gradient);}.cls-3{fill:url(#linear-gradient-2);}.cls-4{fill:url(#linear-gradient-3);}</style><linearGradient id="linear-gradient" x1="16.01" y1="4.46" x2="16.01" y2="49.65" gradientUnits="userSpaceOnUse"><stop offset="0" stop-color="#ffbafa"/><stop offset="0.5" stop-color="#ffbafa"/><stop offset="1" stop-color="#3b027f"/></linearGradient><linearGradient id="linear-gradient-2" x1="78.84" y1="57.42" x2="78.84" y2="12.33" xlink:href="#linear-gradient"/><linearGradient id="linear-gradient-3" x1="22.54" y1="55.88" x2="72.31" y2="6.11" gradientUnits="userSpaceOnUse"><stop offset="0" stop-color="#3b027f"/><stop offset="1" stop-color="#ffbafa"/></linearGradient></defs><title>SCS-Logo-GradDark</title><g id="Layer_2" data-name="Layer 2"><g id="Layer_1-2" data-name="Layer 1"><path class="cls-1" d="M236.64,11.33V47.26H225.57v-6.5a11.93,11.93,0,0,1-4.61,5,13.34,13.34,0,0,1-7.12,1.87A12.43,12.43,0,0,1,204,43.53q-3.65-4.12-3.64-11.34V11.33h10.94V30.84a8,8,0,0,0,1.9,5.7,6.7,6.7,0,0,0,5.12,2,6.78,6.78,0,0,0,5.28-2.13,8.66,8.66,0,0,0,1.94-6V11.33Z"/><path class="cls-1" d="M152.22,14.68a14.81,14.81,0,0,1,5.12,9H147a5.71,5.71,0,0,0-2-3.44,6.16,6.16,0,0,0-4-1.26,4.33,4.33,0,0,0-2.84.81,2.82,2.82,0,0,0-1,2.28A2.69,2.69,0,0,0,139,24.6a28.82,28.82,0,0,0,5.57,1.67,56,56,0,0,1,6.76,2,11.22,11.22,0,0,1,4.57,3.25,9,9,0,0,1,1.93,6.06A9.32,9.32,0,0,1,156.18,43a11.05,11.05,0,0,1-4.83,3.74,18.88,18.88,0,0,1-7.47,1.35q-7.27,0-11.65-3.22a13.55,13.55,0,0,1-5.35-9.21h10.63a4.74,4.74,0,0,0,2,3.54,7.37,7.37,0,0,0,4.41,1.23,4,4,0,0,0,2.83-.88,2.89,2.89,0,0,0,1-2.28,2.74,2.74,0,0,0-1.77-2.67,32.1,32.1,0,0,0-5.76-1.71,46.74,46.74,0,0,1-6.57-1.8A10.82,10.82,0,0,1,129.13,28a8.73,8.73,0,0,1-1.86-5.9,9.6,9.6,0,0,1,3.67-7.82q3.67-3,10.36-3T152.22,14.68Z"/><path class="cls-1" d="M188,13.49a16.33,16.33,0,0,1,6.63,6.4A19.29,19.29,0,0,1,197,29.68a19.24,19.24,0,0,1-2.42,9.79A16.36,16.36,0,0,1,188,45.88a21.76,21.76,0,0,1-19.15,0,16.28,16.28,0,0,1-6.67-6.41,19.23,19.23,0,0,1-2.41-9.79,19.28,19.28,0,0,1,2.41-9.79,16.25,16.25,0,0,1,6.67-6.4,21.76,21.76,0,0,1,19.15,0Zm-14.87,9.59q-2.16,2.3-2.16,6.6t2.16,6.57a7.36,7.36,0,0,0,10.59,0c1.42-1.5,2.12-3.69,2.12-6.57s-.7-5.07-2.12-6.6a7.29,7.29,0,0,0-10.59,0Z"/><path class="cls-1" d="M258.6,13.26a13.64,13.64,0,0,1,7-1.93V23.12H262.5A11,11,0,0,0,255.7,25q-2.41,1.88-2.41,6.31V47.65h-11V11.72h11v6.76A15.59,15.59,0,0,1,258.6,13.26Z"/><path class="cls-1" d="M296.37,15.1a17,17,0,0,1,5.93,10.53H290.64A6.14,6.14,0,0,0,288.52,22a6.29,6.29,0,0,0-4.06-1.29A5.89,5.89,0,0,0,279.69,23q-1.86,2.28-1.86,6.66t1.86,6.67a5.91,5.91,0,0,0,4.77,2.28,6.29,6.29,0,0,0,4.06-1.29,6.12,6.12,0,0,0,2.12-3.6H302.3a17,17,0,0,1-5.93,10.53,17.84,17.84,0,0,1-11.65,3.83,19.34,19.34,0,0,1-9.37-2.22,16,16,0,0,1-6.41-6.41,19.93,19.93,0,0,1-2.31-9.79,20.1,20.1,0,0,1,2.28-9.82,15.67,15.67,0,0,1,6.41-6.37,19.51,19.51,0,0,1,9.4-2.22A17.79,17.79,0,0,1,296.37,15.1Z"/><path class="cls-1" d="M339.74,31.68H314.82q.19,4.05,2.06,5.83a6.65,6.65,0,0,0,4.77,1.77,6.52,6.52,0,0,0,4.05-1.22,5.74,5.74,0,0,0,2.13-3.16h11.65a15.21,15.21,0,0,1-3.09,6.79,16.44,16.44,0,0,1-6.05,4.7,19.13,19.13,0,0,1-8.18,1.71,19.34,19.34,0,0,1-9.37-2.22,15.92,15.92,0,0,1-6.4-6.41,19.82,19.82,0,0,1-2.32-9.79,20.1,20.1,0,0,1,2.28-9.82,15.73,15.73,0,0,1,6.41-6.37,21.14,21.14,0,0,1,18.8,0,15.44,15.44,0,0,1,6.28,6.15,18.29,18.29,0,0,1,2.22,9.11A14.74,14.74,0,0,1,339.74,31.68ZM327,21.73A7,7,0,0,0,322.16,20a7.21,7.21,0,0,0-5,1.8A7.53,7.53,0,0,0,314.89,27h14A6.62,6.62,0,0,0,327,21.73Z"/><path class="cls-1" d="M371.68,15.1a17,17,0,0,1,5.92,10.53H366A6.21,6.21,0,0,0,363.82,22a6.27,6.27,0,0,0-4.06-1.29A5.87,5.87,0,0,0,355,23q-1.87,2.28-1.87,6.66T355,36.35a5.89,5.89,0,0,0,4.76,2.28,6.27,6.27,0,0,0,4.06-1.29,6.18,6.18,0,0,0,2.13-3.6H377.6a17.05,17.05,0,0,1-5.92,10.53A17.89,17.89,0,0,1,360,48.1a19.34,19.34,0,0,1-9.37-2.22,15.92,15.92,0,0,1-6.4-6.41,19.82,19.82,0,0,1-2.32-9.79,20.1,20.1,0,0,1,2.28-9.82,15.73,15.73,0,0,1,6.41-6.37,19.51,19.51,0,0,1,9.4-2.22A17.83,17.83,0,0,1,371.68,15.1Z"/><path class="cls-1" d="M407.61,13.49a16.33,16.33,0,0,1,6.63,6.4,19.28,19.28,0,0,1,2.41,9.79,19.23,19.23,0,0,1-2.41,9.79,16.36,16.36,0,0,1-6.63,6.41,21.78,21.78,0,0,1-19.16,0,16.31,16.31,0,0,1-6.66-6.41,19.14,19.14,0,0,1-2.42-9.79,19.19,19.19,0,0,1,2.42-9.79,16.29,16.29,0,0,1,6.66-6.4,21.78,21.78,0,0,1,19.16,0Zm-14.88,9.59q-2.16,2.3-2.16,6.6t2.16,6.57A7.07,7.07,0,0,0,398,38.5a7,7,0,0,0,5.28-2.25q2.13-2.25,2.13-6.57t-2.13-6.6A6.9,6.9,0,0,0,398,20.8,7,7,0,0,0,392.73,23.08Z"/><path class="cls-1" d="M441.25,13.13a10.92,10.92,0,0,1,4.31,5.09V0h11V47.65h-11V41.14a10.82,10.82,0,0,1-4.31,5.09,13,13,0,0,1-7.08,1.87,14.51,14.51,0,0,1-7.95-2.22,15.18,15.18,0,0,1-5.54-6.41,22.09,22.09,0,0,1-2-9.79,22,22,0,0,1,2-9.82,15.19,15.19,0,0,1,5.54-6.37,14.51,14.51,0,0,1,7.95-2.22A13,13,0,0,1,441.25,13.13ZM432,23.24a9.1,9.1,0,0,0-2.16,6.44A9.07,9.07,0,0,0,432,36.12a8.09,8.09,0,0,0,11.4-.06,9,9,0,0,0,2.22-6.38,8.93,8.93,0,0,0-2.22-6.4,8.11,8.11,0,0,0-11.4,0Z"/><path class="cls-1" d="M496.11,31.68H471.19c.13,2.7.81,4.64,2.06,5.83A6.65,6.65,0,0,0,478,39.28a6.53,6.53,0,0,0,4.06-1.22,5.79,5.79,0,0,0,2.13-3.16h11.65a15.21,15.21,0,0,1-3.09,6.79,16.52,16.52,0,0,1-6.05,4.7,19.13,19.13,0,0,1-8.18,1.71,19.34,19.34,0,0,1-9.37-2.22,16,16,0,0,1-6.41-6.41,19.93,19.93,0,0,1-2.31-9.79,20.1,20.1,0,0,1,2.28-9.82,15.67,15.67,0,0,1,6.41-6.37,21.14,21.14,0,0,1,18.8,0,15.44,15.44,0,0,1,6.28,6.15,18.29,18.29,0,0,1,2.22,9.11A15.51,15.51,0,0,1,496.11,31.68Zm-12.72-9.95A7,7,0,0,0,478.53,20a7.21,7.21,0,0,0-5,1.8A7.53,7.53,0,0,0,471.26,27h14A6.62,6.62,0,0,0,483.39,21.73Z"/><path class="cls-1" d="M520.09,15.07a12.91,12.91,0,0,1,4.25,8.17H520a8.74,8.74,0,0,0-2.8-5.63,9.19,9.19,0,0,0-6.47-2.22,8,8,0,0,0-5.44,1.71,5.67,5.67,0,0,0-2,4.54,4.64,4.64,0,0,0,1.26,3.4,8.2,8.2,0,0,0,3.12,2,42.71,42.71,0,0,0,5,1.38A46.83,46.83,0,0,1,519,30.23a10.06,10.06,0,0,1,4,2.93,8.12,8.12,0,0,1,1.67,5.41,8.62,8.62,0,0,1-3.12,6.86,12.29,12.29,0,0,1-8.27,2.67,15.76,15.76,0,0,1-9.92-3,12,12,0,0,1-4.57-8.21h4.38a8.26,8.26,0,0,0,3,5.66,10.84,10.84,0,0,0,7.14,2.19A7.38,7.38,0,0,0,518.55,43a5.9,5.9,0,0,0,1.87-4.51,5,5,0,0,0-1.29-3.6,8.06,8.06,0,0,0-3.19-2,52.59,52.59,0,0,0-5.18-1.45,45.93,45.93,0,0,1-6.09-1.8,9.74,9.74,0,0,1-3.89-2.8,7.74,7.74,0,0,1-1.61-5.18,8.64,8.64,0,0,1,3.15-7Q505.47,12,510.89,12A13.48,13.48,0,0,1,520.09,15.07Z"/><path class="cls-1" d="M544.23,43.65v4h-4.18q-5.1,0-7.6-2.42c-1.68-1.61-2.51-4.32-2.51-8.14V3.6h4.57v8.89h9.66v3.93h-9.66V37.15q0,3.74,1.35,5.12t4.76,1.38Z"/><path class="cls-1" d="M580.52,12.49V47.65H576V39a12.23,12.23,0,0,1-4.89,7A14.18,14.18,0,0,1,563,48.29a13.42,13.42,0,0,1-10-3.9Q549.17,40.5,549.16,33V12.49h4.51V32.58c0,3.86,1,6.82,2.9,8.85a10.38,10.38,0,0,0,7.92,3.06,10.9,10.9,0,0,0,8.4-3.38Q576,37.74,576,31.16V12.49Z"/><path class="cls-1" d="M612.39,14.81a13.64,13.64,0,0,1,5.12,7.34V0H622V47.65h-4.51V38a13.68,13.68,0,0,1-5.12,7.34,14.93,14.93,0,0,1-9.11,2.77,16.64,16.64,0,0,1-8.53-2.19,14.91,14.91,0,0,1-5.86-6.28,20.63,20.63,0,0,1-2.09-9.56,20.84,20.84,0,0,1,2.09-9.63,14.84,14.84,0,0,1,5.82-6.24A16.81,16.81,0,0,1,603.28,12,14.93,14.93,0,0,1,612.39,14.81Zm-17.45,5q-3.57,3.76-3.57,10.27t3.57,10.27a12.48,12.48,0,0,0,9.5,3.76,13.15,13.15,0,0,0,6.73-1.73,12.34,12.34,0,0,0,4.7-4.93,15.45,15.45,0,0,0,1.7-7.37,15.45,15.45,0,0,0-1.7-7.37,12.28,12.28,0,0,0-4.7-4.93A13.16,13.16,0,0,0,604.44,16,12.49,12.49,0,0,0,594.94,19.8Z"/><path class="cls-1" d="M634.87,12.49V47.65H630.3V12.49Z"/><path class="cls-1" d="M659.59,48.88A18.81,18.81,0,1,1,678.4,30.07,18.83,18.83,0,0,1,659.59,48.88Zm0-33.18A14.37,14.37,0,1,0,674,30.07,14.39,14.39,0,0,0,659.59,15.7Z"/><path class="cls-2" d="M22.36,48.22l4.11-4.11.05,0L13.39,30.93l17-17a5.54,5.54,0,0,0-7.84-7.84L1.62,27h0a5.55,5.55,0,0,0,0,7.84L15.2,48.45A5.52,5.52,0,0,0,22.36,48.22Z"/><path class="cls-3" d="M80.13,13.94a5.53,5.53,0,0,0-7.64-.16l-4.1,4.09L81.46,30.94l-17,17a5.55,5.55,0,1,0,7.85,7.85L93.23,34.86h0a5.55,5.55,0,0,0,0-7.84"/><path class="cls-4" d="M72.31,6.11a5.54,5.54,0,0,0-7.82,0l0,0-.1.1L26.52,44.06l-.05,0-4.11,4.11a5.52,5.52,0,0,1-7.16.23,6,6,0,0,1-.48-.4l7.82,7.83a5.52,5.52,0,0,0,7.81,0l0,0,38-38v0l4.1-4.09a5.53,5.53,0,0,1,7.64.16Z"/></g></g></svg>